PathFileType	4	(X/Y/Z)	Run_400 02
DataRate	CameraRate	NumFrames	NumMarkers	Units	OrigDataRate	OrigDataStartFrame	OrigNumFrames
100	100	6	42	mm	100	99	128
Frame#	Time	LPSI			RPSI			RTH2			RTH3			LTH1			LTH2			LTH3			RTB1			RTB2			LTB1			LTB2			RCAL			RTOE			RMT5			LCAL			LTOE			LMT5			LACR			RACR			CLAV			C7			RUA1			RUA2			RUA3			RLEL			LUA1			LUA2			LUA3			LLEL			LMEL			RFAsuperior			RFAulna			LFAsuperior			LFAradius			LFAulna			RASI			RTB3			LTB3			RMEL			RFAradius			RTH1			LASI			
		X1	Y1	Z1	X2	Y2	Z2	X3	Y3	Z3	X4	Y4	Z4	X5	Y5	Z5	X6	Y6	Z6	X7	Y7	Z7	X8	Y8	Z8	X9	Y9	Z9	X10	Y10	Z10	X11	Y11	Z11	X12	Y12	Z12	X13	Y13	Z13	X14	Y14	Z14	X15	Y15	Z15	X16	Y16	Z16	X17	Y17	Z17	X18	Y18	Z18	X19	Y19	Z19	X20	Y20	Z20	X21	Y21	Z21	X22	Y22	Z22	X23	Y23	Z23	X24	Y24	Z24	X25	Y25	Z25	X26	Y26	Z26	X27	Y27	Z27	X28	Y28	Z28	X29	Y29	Z29	X30	Y30	Z30	X31	Y31	Z31	X32	Y32	Z32	X33	Y33	Z33	X34	Y34	Z34	X35	Y35	Z35	X36	Y36	Z36	X37	Y37	Z37	X38	Y38	Z38	X39	Y39	Z39	X40	Y40	Z40	X41	Y41	Z41	X42	Y42	Z42	

77	1.63	832.039974	1075.068282	-417.980023	818.242714	1071.906916	-305.057898	901.81341	749.8689450000001	-204.85507	999.717865	620.598797	-210.873255	938.455457	876.78899	-518.102479	869.76723	723.390252	-485.597971	928.7674510000001	593.557107	-492.119342	1069.97281	380.793739	-296.593089	985.598795	347.236197	-229.009232	850.186992	428.752581	-438.533642	741.889231	522.134646	-477.65198	839.384732	101.318706	-328.915456	1081.613989	73.410888	-353.113894	1031.737385	50.930438	-257.939534	511.390427	585.257198	-385.403402	470.404713	354.307016	-422.497609	441.126753	421.929584	-507.851062	977.842069	1511.039436	-481.772315	984.237847	1473.371015	-159.04885	1044.823662	1447.609019	-289.518242	920.553625	1521.178404	-323.633526	859.648532	1396.881826	-93.132161	894.695195	1330.619706	-65.209401	809.598605	1273.061963	-26.044318	764.33721	1224.292304	-1.289322	876.0343360000001	1425.824439	-544.1901789999999	901.727962	1352.188092	-581.216287	827.115638	1298.812673	-616.778689	805.618755	1237.376828	-644.39624	774.62999	1214.443578	-562.763431	845.688239	1150.738226	2.497156	964.201868	1047.589515	-42.91877	861.100921	1170.745893	-633.916886	1009.349715	1131.255431	-517.360266	996.98577	1075.079934	-562.046522	972.903146	1016.54316	-219.501755	993.228716	205.969015	-320.692273	633.9541850000001	459.113446	-430.600253	764.567459	1194.005511	-86.43820100000001	994.654611	1091.786574	-85.78216399999999	902.591615	902.2261590000001	-171.062294	983.826147	1014.143341	-502.882698	
78	1.64	826.2295319999999	1071.576518	-416.820283	813.982667	1067.332304	-304.733352	895.017033	745.370685	-206.65494	989.579241	613.831177	-212.774223	936.712455	874.9252729999999	-519.198216	879.0441039999999	718.404091	-488.061007	946.961193	592.466266	-494.302451	1048.799532	371.333627	-299.190609	963.048209	342.291066	-230.744234	876.816498	427.285856	-438.978187	767.380052	517.875854	-481.744404	801.1937789999999	102.41718	-328.41226	1043.195138	72.28479	-352.563387	992.9669249999999	49.9586	-257.608518	533.467851	579.036492	-390.755747	501.910307	345.790694	-422.618136	470.826838	410.021189	-509.676911	976.008432	1505.358657	-481.814293	985.812445	1466.814691	-158.667814	1044.881267	1441.714655	-290.191582	920.93123	1517.587028	-322.70653	868.820337	1383.236969	-89.396049	904.159016	1318.09952	-63.389466	823.261542	1256.640891	-21.477783	781.149403	1206.700082	5.174854	871.881069	1421.838417	-542.6982369999999	895.543862	1347.475443	-579.885801	818.998374	1295.620128	-613.651608	796.2110719999999	1234.671095	-641.3859169999999	767.04076	1211.569192	-559.724498	863.915303	1133.760362	5.93707	981.433547	1032.325889	-43.486757	848.550894	1164.376115	-633.80897	995.359439	1110.884944	-520.82071	979.733516	1058.916497	-568.7253920000001	969.020293	1012.495675	-217.877483	961.131999	201.411866	-321.594916	660.792218	454.232801	-432.645642	779.450577	1176.856214	-80.017709	1010.437853	1076.422674	-87.52936800000001	899.32148	897.971188	-171.587797	978.014113	1010.473729	-501.856762	
79	1.65	821.143652	1069.483292	-414.943433	810.841642	1064.889732	-303.29184	886.18882	742.299721	-207.688365	975.691101	607.078519	-214.590503	934.257754	874.437896	-520.839143	888.781765	715.9291930000001	-490.368283	965.620909	594.198856	-496.090769	1024.398313	362.223793	-301.398818	937.164719	337.094318	-232.633075	904.733797	427.689887	-438.981553	792.599418	513.095559	-485.375004	762.952044	103.250677	-328.40706	1004.738387	71.374577	-352.376651	954.251319	49.364661	-257.370363	554.1482119999999	569.700103	-396.582359	535.999172	334.135175	-421.728419	502.03197	393.803975	-510.682078	973.986997	1501.288046	-481.758952	987.748694	1461.613064	-158.652988	1044.643358	1437.226212	-291.094487	920.380314	1514.435523	-322.160493	878.191282	1372.015816	-88.222134	913.608558	1308.644021	-62.228529	837.540603	1243.230535	-17.64387	799.5186200000001	1191.255125	10.842804	867.6368189999999	1419.732105	-541.5034460000001	889.459538	1344.340271	-578.324262	810.749175	1294.68623	-610.359213	786.499337	1234.408666	-638.593408	758.773945	1210.864398	-556.7643870000001	884.688472	1120.460485	7.849776	1000.687846	1020.284761	-45.288387	835.974126	1161.295276	-633.570146	980.346937	1094.508989	-524.388295	962.026389	1047.457112	-575.964841	966.249869	1009.415405	-217.711255	927.485698	196.833576	-322.404903	688.052287	448.295551	-434.0634	795.274557	1161.569877	-74.201227	1027.673912	1064.086549	-91.11421900000001	896.199713	894.667872	-172.337934	972.928208	1008.202593	-500.11398	
80	1.66	817.246413	1068.733936	-413.173516	808.642757	1064.688122	-301.404757	875.8604769999999	740.783328	-207.73325	959.280046	601.435816	-216.023546	931.809795	874.756332	-522.569993	899.101737	715.719265	-493.055648	984.43908	598.653824	-497.406088	997.571903	354.96446	-303.24631	909.315219	333.39323	-234.201187	933.462855	430.222746	-438.792508	817.371879	508.195588	-488.446815	724.871695	104.24619	-328.867764	966.352985	71.000872	-352.589066	915.712562	49.401132	-257.478263	573.779901	557.16725	-402.371461	572.204308	320.136779	-420.018248	534.732412	374.344277	-510.926443	971.380497	1499.138465	-481.714105	990.396689	1458.129186	-158.958625	1044.331559	1434.431038	-292.174804	919.213218	1512.201318	-321.477453	886.230316	1363.887062	-88.425783	923.422711	1302.354024	-62.092439	852.310082	1233.298378	-14.945463	818.60785	1179.150774	15.205364	862.826544	1419.467631	-540.182288	882.806992	1343.262036	-576.837223	801.880136	1296.11605	-607.107287	775.8578189999999	1236.765765	-636.297699	749.268495	1212.802951	-553.816958	906.478345	1111.441628	8.082986999999999	1021.499983	1013.07713	-48.911279	822.666833	1161.373638	-633.331905	965.462043	1084.341254	-528.4694009999999	944.39783	1041.295474	-582.650272	964.30931	1007.233266	-218.752977	893.018857	193.555876	-323.023822	715.543997	441.524008	-434.832665	811.401249	1149.250672	-69.51927000000001	1045.622921	1056.841782	-96.68414900000001	892.405939	892.661564	-173.025782	969.034571	1007.275178	-498.478245	
81	1.67	814.562332	1069.410037	-412.066734	807.135856	1066.133731	-299.823396	864.44097	740.721095	-207.320216	940.938932	597.4782709999999	-217.09894	930.386789	876.087973	-524.083385	909.779836	717.802264	-496.227073	1003.012297	605.850441	-498.380656	968.792749	349.72258	-304.587905	879.897239	331.415824	-235.250649	962.095471	435.04925	-438.270395	841.528619	503.935168	-490.874886	686.944086	105.892589	-329.4219	927.939162	70.88153800000001	-352.820718	877.112539	49.64014	-257.736684	592.9723750000001	541.380837	-407.730457	610.007328	304.457422	-417.663307	568.793414	352.551013	-510.451967	968.058641	1498.961097	-481.692446	993.705107	1456.811766	-159.62231	1044.072033	1433.627443	-293.396626	918.128924	1511.740377	-320.375463	892.7698349999999	1359.183845	-88.419858	933.546469	1298.958625	-63.090557	866.99716	1226.993155	-13.634826	837.1355160000001	1171.089727	17.821944	857.18111	1421.162795	-538.348098	875.016195	1344.876873	-575.722494	792.056745	1300.084915	-604.194847	763.963219	1241.772728	-634.327883	738.619326	1217.646488	-550.81537	927.355153	1106.687542	6.570675	1042.889386	1011.943347	-54.872599	808.259231	1164.40413	-633.001063	951.711158	1081.726112	-533.121724	927.167334	1040.07749	-586.9182479999999	962.880836	1006.094471	-220.165108	858.06686	191.952536	-323.39126	743.512207	434.003311	-435.328811	827.130602	1140.868971	-66.583754	1063.346729	1056.457556	-104.004807	887.9289199999999	892.015076	-173.581602	966.354274	1007.773197	-497.505204	
82	1.68	812.912446	1071.595801	-411.554833	806.171012	1068.503171	-298.816608	852.241277	742.133922	-206.956605	920.842007	595.274901	-217.98423	930.513133	879.148003	-525.338915	920.170363	722.172295	-499.287608	1020.721165	615.6924	-499.206144	938.265067	346.12269	-305.541133	848.8452129999999	330.733188	-235.891807	989.681575	441.994362	-437.33976	864.760149	500.79871	-492.565078	648.954963	108.809814	-329.677622	889.130939	70.663099	-353.030707	837.936843	49.73911	-258.086162	612.26632	522.421618	-412.25584	649.19636	287.601122	-414.923628	604.228802	329.176454	-509.340327	964.152016	1500.688205	-481.680489	997.250783	1457.918902	-160.60265	1043.909772	1434.891317	-294.783933	917.4978149999999	1513.348424	-319.094827	898.889935	1357.968081	-87.408327	943.3349920000001	1298.321022	-64.86447	880.717701	1224.215718	-13.616871	854.006177	1166.978611	18.593173	850.758405	1425.002142	-535.902824	866.0642360000001	1349.46477	-575.038597	781.385569	1306.695858	-601.734412	751.1031	1249.353207	-632.2198069999999	727.413376	1225.270159	-547.74977	946.1945020000001	1106.188959	3.293552	1063.732349	1017.278989	-63.331221	793.354792	1170.539347	-632.290427	939.463661	1086.390604	-537.833893	910.885205	1043.37632	-588.033135	961.8871799999999	1006.100607	-221.288124	822.5263179999999	191.829198	-323.57816	772.166967	425.801901	-435.921333	841.829935	1136.787677	-65.68197600000001	1079.992527	1063.485821	-112.678345	883.362139	892.576073	-174.117468	964.700598	1009.781172	-497.126384	
